<?xml version="1.0" standalone="no"?>
<!DOCTYPE svg PUBLIC "-//W3C//DTD SVG 20010904//EN"
 "http://www.w3.org/TR/2001/REC-SVG-20010904/DTD/svg10.dtd">
<svg version="1.0" xmlns="http://www.w3.org/2000/svg"
 width="1280.000000pt" height="1280.000000pt" viewBox="0 0 1280.000000 1280.000000"
 preserveAspectRatio="xMidYMid meet">
<metadata>
Created by potrace 1.15, written by Peter Selinger 2001-2017
</metadata>
<g transform="translate(0.000000,1280.000000) scale(0.100000,-0.100000)"
fill="#000000" stroke="none">
<path d="M1602 11191 l-1602 -1606 1593 -1592 1592 -1593 -1592 -1593 -1593
-1592 1607 -1608 1608 -1607 1592 1592 1593 1593 1593 -1593 1592 -1592 1608
1607 1607 1608 -1593 1592 -1592 1593 1592 1593 1593 1592 -1607 1608 -1608
1607 -1592 -1593 -1593 -1592 -1592 1592 c-876 876 -1595 1592 -1598 1591 -3
-1 -726 -724 -1608 -1607z"/>
</g>
</svg>
